<svg width="21" height="15" viewBox="0 0 21 15" fill="none" xmlns="http://www.w3.org/2000/svg">
<path d="M19.7959 2.54594L7.7959 14.5459C7.69138 14.6508 7.56719 14.734 7.43044 14.7908C7.2937 14.8476 7.14709 14.8768 6.99902 14.8768C6.85096 14.8768 6.70435 14.8476 6.5676 14.7908C6.43085 14.734 6.30666 14.6508 6.20215 14.5459L0.952147 9.29595C0.8475 9.1913 0.764489 9.06706 0.707854 8.93034C0.65122 8.79361 0.62207 8.64706 0.62207 8.49907C0.62207 8.35108 0.65122 8.20453 0.707854 8.0678C0.764489 7.93108 0.8475 7.80684 0.952147 7.7022C1.05679 7.59755 1.18103 7.51454 1.31776 7.4579C1.45448 7.40127 1.60103 7.37212 1.74902 7.37212C1.89702 7.37212 2.04356 7.40127 2.18029 7.4579C2.31702 7.51454 2.44125 7.59755 2.5459 7.7022L6.99996 12.1563L18.204 0.954069C18.4154 0.742725 18.702 0.623993 19.0009 0.623993C19.2998 0.623993 19.5864 0.742725 19.7978 0.954069C20.0091 1.16541 20.1278 1.45206 20.1278 1.75094C20.1278 2.04983 20.0091 2.33648 19.7978 2.54782L19.7959 2.54594Z" fill="#20D410"/>
</svg>
